<svg version="1.0" xmlns="http://www.w3.org/2000/svg"
 width="300.000000pt" height="300.000000pt" viewBox="0 0 300.000000 300.000000"
 preserveAspectRatio="xMidYMid meet">
<g transform="translate(0.000000,300.000000) scale(0.050000,-0.050000)"
fill="#000000" stroke="none">
<path d="M147 5971 c6 -17 -3 -34 -23 -40 -107 -35 -122 -108 -122 -606 1
-256 8 -465 16 -465 59 0 62 -173 4 -209 -44 -27 -27 -946 18 -991 42 -42 39
-106 -8 -158 -53 -59 -43 -949 12 -1023 l42 -56 -42 -71 c-64 -107 -67 -947
-4 -1026 33 -42 36 -57 15 -83 -21 -25 -20 -28 4 -13 19 11 14 -8 -14 -56 -47
-80 -69 -954 -25 -954 11 0 14 -12 8 -27 -6 -15 4 -33 21 -40 17 -6 31 -26 31
-42 0 -17 11 -31 25 -31 14 -1 48 -18 75 -40 78 -61 939 -61 1005 0 45 43 95
53 95 20 0 -11 14 -20 31 -20 17 0 26 -9 19 -20 -8 -13 164 -20 500 -20 336 0
508 7 500 20 -7 11 1 20 17 20 16 0 33 11 38 25 7 20 20 19 61 -3 29 -15 48
-36 42 -45 -26 -42 991 -19 1037 23 45 43 95 53 95 20 0 -11 14 -20 31 -20 17
0 26 -9 19 -20 -8 -13 164 -20 500 -20 336 0 508 7 500 20 -7 11 2 20 19 20
17 0 31 9 31 20 0 33 50 23 95 -20 41 -38 71 -40 526 -40 l482 0 68 70 c38 38
77 70 89 70 38 0 26 1037 -12 1075 -30 30 -30 34 0 56 47 34 49 1078 2 1096
-17 7 -30 26 -30 43 0 17 13 36 30 43 45 17 45 1077 0 1094 -16 7 -30 26 -30
43 0 17 14 36 30 43 50 19 45 1107 -5 1108 -33 0 -33 2 0 27 47 35 55 1112 8
1112 -15 0 -44 20 -65 43 -24 28 -27 37 -8 27 26 -15 26 -13 3 16 -43 53
-1090 52 -1122 -1 -20 -33 -22 -33 -48 0 -44 56 -1178 52 -1144 -4 5 -8 -4
-14 -20 -14 -16 0 -29 12 -29 26 0 22 -103 27 -540 27 -304 0 -540 -8 -540
-18 0 -10 -14 -23 -31 -30 -17 -6 -26 -4 -20 6 21 35 -100 43 -629 41 -496 -1
-537 -4 -526 -35 12 -31 9 -31 -27 1 -56 49 -1099 54 -1080 6z m1028 -626 l-5
-515 -515 -4 -515 -5 0 520 0 519 520 0 521 0 -6 -515z m1165 -5 l0 -521 -511
6 -510 5 0 505 c0 278 0 510 1 515 0 6 230 10 510 10 l510 0 0 -520z m1180 0
l0 -520 -520 0 -520 0 0 520 0 520 520 0 520 0 0 -520z m1161 0 l0 -510 -510
-5 -511 -6 0 521 0 521 511 -6 510 -5 0 -510z m1179 0 l0 -521 -515 6 -515 5
-5 515 -6 515 521 0 520 0 0 -520z m-2277 -562 c34 -18 37 -57 37 -565 0 -397
7 -552 24 -569 17 -17 171 -24 566 -24 395 0 549 -7 566 -24 31 -31 34 -1119
3 -1177 -19 -37 -47 -39 -561 -39 -355 0 -536 -7 -528 -20 8 -12 199 -20 506
-20 l494 0 -6 -504 c-3 -278 -8 -507 -11 -509 -2 -3 -231 -8 -509 -11 l-504
-6 0 494 c0 307 -8 498 -20 506 -13 8 -20 -173 -20 -528 0 -514 -2 -542 -39
-561 -52 -28 -1110 -28 -1162 0 -37 19 -39 47 -39 566 0 397 -7 552 -24 569
-17 17 -172 24 -569 24 -519 0 -547 2 -566 39 -28 52 -28 1110 0 1162 19 37
47 39 566 39 397 0 552 7 569 24 17 17 24 172 24 569 0 498 3 547 35 566 46
27 1118 26 1168 -1z m-2408 -607 l6 -511 -521 0 -520 0 0 507 c0 278 4 510 8
515 5 4 237 6 515 4 l507 -5 5 -510z m1168 29 c2 -275 4 -510 5 -522 2 -18
-1034 -30 -1037 -12 -1 2 2 231 5 509 l5 504 495 6 c272 3 501 8 509 10 8 3
16 -220 18 -495z m2330 473 c3 -2 8 -231 11 -508 l6 -504 -510 -5 c-280 -3
-514 -1 -520 4 -5 6 -7 240 -4 520 l5 510 504 -6 c277 -3 506 -8 508 -11z
m1187 -504 l0 -509 -520 0 -520 0 0 510 0 509 505 6 c278 3 512 2 520 -1 8 -4
15 -235 15 -515z m-4680 -1169 l0 -520 -520 0 -520 0 0 520 0 520 520 0 520 0
0 -520z m4680 0 l0 -520 -520 0 -520 0 0 520 0 520 520 0 520 0 0 -520z
m-3516 -1180 l-5 -510 -504 6 c-277 3 -506 8 -508 11 -3 2 -8 231 -11 508 l-6
504 510 6 c281 3 515 1 520 -5 6 -5 7 -239 4 -520z m-1169 9 l-5 -510 -510 0
-510 0 -5 510 -6 511 521 0 521 0 -6 -511z m4685 4 c0 -278 -4 -510 -8 -515
-5 -4 -239 -5 -520 -2 l-512 5 0 510 0 509 520 0 520 0 0 -507z m-4685 -1178
l6 -515 -521 0 -520 0 0 520 0 521 515 -6 515 -5 5 -515z m1165 5 l0 -521
-511 6 -510 5 0 505 c0 278 0 510 1 515 0 6 230 10 510 10 l510 0 0 -520z
m1180 0 l0 -520 -520 0 -520 0 0 520 0 520 520 0 520 0 0 -520z m1161 0 l0
-510 -510 -5 -511 -6 0 521 0 520 511 -5 510 -5 0 -510z m1179 0 l0 -520 -520
0 -520 0 0 507 c0 278 6 512 13 520 8 7 242 13 520 13 l507 0 0 -520z"/>
<path d="M2480 4170 l0 -510 520 0 520 0 0 510 0 510 -520 0 -520 0 0 -510z
m800 -10 l0 -280 -290 0 -290 0 0 280 0 280 290 0 290 0 0 -280z"/>
<path d="M2560 3546 c-195 -25 -47 -35 412 -30 280 3 505 13 499 22 -10 17
-783 24 -911 8z"/>
<path d="M1320 3000 l0 -520 510 0 510 0 0 520 0 520 -510 0 -510 0 0 -520z
m780 -10 l0 -290 -280 0 -280 0 0 290 0 290 280 0 280 0 0 -290z"/>
<path d="M3660 3000 l0 -520 510 0 510 0 0 520 0 520 -510 0 -510 0 0 -520z
m780 -10 l0 -290 -280 0 -280 0 0 290 0 290 280 0 280 0 0 -290z"/>
<path d="M2456 3008 c-3 -259 1 -476 9 -481 8 -5 15 207 15 472 0 264 -4 481
-9 481 -5 0 -12 -212 -15 -472z"/>
<path d="M3529 3000 c0 -269 2 -380 6 -245 3 135 3 355 0 490 -4 135 -6 25 -6
-245z"/>
<path d="M2525 2469 c15 -16 934 -16 950 -1 6 7 -207 12 -475 12 -268 0 -482
-5 -475 -11z"/>
<path d="M2480 1830 l0 -510 520 0 520 0 0 510 0 510 -520 0 -520 0 0 -510z
m800 -10 l0 -280 -290 0 -290 0 0 280 0 280 290 0 290 0 0 -280z"/>
</g>
</svg>
